<?xml version="1.0" encoding="UTF-8" standalone="no"?>
<!-- Created with Inkscape (http://www.inkscape.org/) -->

<svg
   xmlns:dc="http://purl.org/dc/elements/1.1/"
   xmlns:cc="http://creativecommons.org/ns#"
   xmlns:rdf="http://www.w3.org/1999/02/22-rdf-syntax-ns#"
   xmlns:svg="http://www.w3.org/2000/svg"
   xmlns="http://www.w3.org/2000/svg"
   xmlns:sodipodi="http://sodipodi.sourceforge.net/DTD/sodipodi-0.dtd"
   xmlns:inkscape="http://www.inkscape.org/namespaces/inkscape"
   width="762.66669"
   height="1201.5"
   id="svg2"
   version="1.1"
   inkscape:version="0.92.2 (unknown)"
   sodipodi:docname="Happy_Question.svg"
   viewBox="0 0 715 1126.4062">
  <defs
     id="defs4">
    <inkscape:path-effect
       effect="skeletal"
       id="path-effect855"
       is_visible="true"
       pattern="m -14.285714,7.8571429 c 0,-2.76 2.24,-5 4.9999997,-5 2.76,0 5,2.24 5,5 0,2.7600001 -2.24,5.0000001 -5,5.0000001 -2.7599997,0 -4.9999997,-2.24 -4.9999997,-5.0000001 z"
       copytype="single_stretched"
       prop_scale="1"
       scale_y_rel="false"
       spacing="0"
       normal_offset="0"
       tang_offset="0"
       prop_units="false"
       vertical_pattern="false"
       fuse_tolerance="0" />
    <inkscape:path-effect
       effect="skeletal"
       id="path-effect851"
       is_visible="true"
       pattern="m 8.5714286,-0.71428571 c 0,-2.75999999 2.2400004,-4.99999999 5.0000004,-4.99999999 2.76,0 5,2.24 5,4.99999999 0,2.76000001 -2.24,5.00000001 -5,5.00000001 -2.76,0 -5.0000004,-2.24 -5.0000004,-5.00000001 z"
       copytype="single_stretched"
       prop_scale="1"
       scale_y_rel="false"
       spacing="0"
       normal_offset="0"
       tang_offset="0"
       prop_units="false"
       vertical_pattern="false"
       fuse_tolerance="0" />
    <inkscape:path-effect
       effect="skeletal"
       id="path-effect847"
       is_visible="true"
       pattern="m 2.8571429,10.714286 c 0,-2.7600003 2.24,-5.0000003 5,-5.0000003 2.7600001,0 5.0000001,2.24 5.0000001,5.0000003 0,2.76 -2.24,5 -5.0000001,5 -2.76,0 -5,-2.24 -5,-5 z"
       copytype="single_stretched"
       prop_scale="1"
       scale_y_rel="false"
       spacing="0"
       normal_offset="0"
       tang_offset="0"
       prop_units="false"
       vertical_pattern="false"
       fuse_tolerance="0" />
    <inkscape:path-effect
       effect="skeletal"
       id="path-effect843"
       is_visible="true"
       pattern="m -2.8571429,10.714286 c 0,-2.7600003 2.24000004,-5.0000003 5,-5.0000003 2.76,0 5,2.24 5,5.0000003 0,2.76 -2.24,5 -5,5 -2.75999996,0 -5,-2.24 -5,-5 z"
       copytype="single_stretched"
       prop_scale="1"
       scale_y_rel="false"
       spacing="0"
       normal_offset="0"
       tang_offset="0"
       prop_units="false"
       vertical_pattern="false"
       fuse_tolerance="0" />
    <inkscape:path-effect
       effect="skeletal"
       id="path-effect823"
       is_visible="true"
       pattern="m 92.499432,34.23053 c 0,18.15095 -14.7143,32.86521 -32.8652,32.86521 -18.151,0 -58.2735999,-32.86521 -58.2735999,-32.86521 0,0 40.1225999,-32.86521 58.2735999,-32.86521 18.1509,0 32.8652,14.71425 32.8652,32.86521 z"
       copytype="single_stretched"
       prop_scale="1"
       scale_y_rel="false"
       spacing="0"
       normal_offset="0"
       tang_offset="0"
       prop_units="false"
       vertical_pattern="false"
       fuse_tolerance="0" />
    <inkscape:path-effect
       effect="skeletal"
       id="path-effect813"
       is_visible="true"
       pattern="m 92.499432,34.23053 c 0,18.15095 -14.7143,32.86521 -32.8652,32.86521 -18.151,0 -58.2735999,-32.86521 -58.2735999,-32.86521 0,0 40.1225999,-32.86521 58.2735999,-32.86521 18.1509,0 32.8652,14.71425 32.8652,32.86521 z"
       copytype="single_stretched"
       prop_scale="1"
       scale_y_rel="false"
       spacing="0"
       normal_offset="0"
       tang_offset="0"
       prop_units="false"
       vertical_pattern="false"
       fuse_tolerance="0" />
    <inkscape:path-effect
       effect="skeletal"
       id="path-effect803"
       is_visible="true"
       pattern="m 92.499432,34.23053 c 0,18.15095 -14.7143,32.86521 -32.8652,32.86521 -18.151,0 -58.2735999,-32.86521 -58.2735999,-32.86521 0,0 40.1225999,-32.86521 58.2735999,-32.86521 18.1509,0 32.8652,14.71425 32.8652,32.86521 z"
       copytype="single_stretched"
       prop_scale="1"
       scale_y_rel="false"
       spacing="0"
       normal_offset="0"
       tang_offset="0"
       prop_units="false"
       vertical_pattern="false"
       fuse_tolerance="0" />
    <inkscape:path-effect
       effect="skeletal"
       id="path-effect799"
       is_visible="true"
       pattern="M 0,5 C 0,2.24 2.24,0 5,0 7.76,0 10,2.24 10,5 10,7.76 7.76,10 5,10 2.24,10 0,7.76 0,5 Z"
       copytype="single_stretched"
       prop_scale="1"
       scale_y_rel="false"
       spacing="0"
       normal_offset="0"
       tang_offset="0"
       prop_units="false"
       vertical_pattern="false"
       fuse_tolerance="0" />
  </defs>
  <sodipodi:namedview
     id="base"
     pagecolor="#ffffff"
     bordercolor="#666666"
     borderopacity="1.0"
     inkscape:pageopacity="0.0"
     inkscape:pageshadow="2"
     inkscape:zoom="0.35"
     inkscape:cx="21.071429"
     inkscape:cy="566.87665"
     inkscape:document-units="px"
     inkscape:current-layer="layer1"
     showgrid="false"
     width="0px"
     height="0px"
     fit-margin-top="0"
     fit-margin-left="0"
     fit-margin-right="0"
     fit-margin-bottom="0"
     inkscape:window-width="1280"
     inkscape:window-height="744"
     inkscape:window-x="-4"
     inkscape:window-y="-4"
     inkscape:window-maximized="1" />
  <metadata
     id="metadata7">
    <rdf:RDF>
      <cc:Work
         rdf:about="">
        <dc:format>image/svg+xml</dc:format>
        <dc:type
           rdf:resource="http://purl.org/dc/dcmitype/StillImage" />
        <dc:title />
      </cc:Work>
    </rdf:RDF>
  </metadata>
  <g
     inkscape:label="Layer 1"
     inkscape:groupmode="layer"
     id="layer1"
     transform="translate(87.5,255.125)">
    <rect
       style="fill:none;fill-rule:nonzero;stroke:#000000;stroke-width:14.74048233;stroke-linejoin:round;stroke-miterlimit:4;stroke-dasharray:none;stroke-dashoffset:0;stroke-opacity:1"
       id="rect857"
       width="700.2594"
       height="1111.688"
       x="-80.129761"
       y="-247.76738"
       rx="56.604179"
       ry="56.874207" />
    <path
       style="fill:#000000;fill-rule:evenodd;stroke:none"
       d="m 188.57149,260.93363 c -0.74023,2.4674 -6.33088,3.82236 -16.36472,2.57097 -9.69598,-1.20924 -24.79805,-5.14786 -41.5699,-14.65 -13.66012,-7.77604 -28.77011,-19.5453 -42.236818,-36.4021 4e-6,-10e-6 -1.7e-5,-2e-5 -1.7e-5,-2e-5 C 68.666231,187.51489 53.129371,152.77528 49.704971,111.04981 46.784663,77.976301 51.105323,40.720953 66.843814,4.3972404 c 1e-5,2.3e-6 1.6e-5,-3.84e-5 1.6e-5,-3.84e-5 6.772738,-15.664696 15.97342,-31.21791 28.035136,-45.576823 11.071704,-13.205888 24.869404,-25.156202 41.316634,-34.470635 26.06108,-14.72288 55.4061,-26.380244 87.17348,-32.836234 14.74037,-3.02223 30.0495,-4.79434 45.66898,-5.03924 14.6671,-0.22996 30.33945,0.91334 46.55811,4.04523 29.2339,5.75732 59.31046,18.471164 85.96136,39.549971 27.45377,22.091244 49.19269,50.801004 64.44085,83.449451 8.19944,17.130207 13.70453,36.082735 15.4748,55.995379 1.49025,18.315351 -0.22128,36.401119 -4.49319,53.594609 -4.40154,17.67 -10.95689,34.12564 -18.64426,49.47142 0,0 -3e-5,5e-5 -3e-5,5e-5 -8.2367,16.51426 -17.57316,31.94615 -27.25246,46.67849 -21.24131,32.37427 -44.02384,62.16358 -64.1423,91.84308 -22.22315,32.93431 -40.81316,64.23234 -53.23427,97.6108 -11.71201,31.48378 -21.28766,56.49795 -30.70379,84.30936 0,0 -1e-5,4e-5 -1e-5,4e-5 -6.62265,19.6111 -11.77494,36.75969 -14.95001,54.15676 -3.27742,17.77966 -4.08332,35.49719 -4.1869,50.20209 -0.30107,45.10443 1.84833,72.12404 1.84833,72.12404 0,0 -4.97515,-26.56862 -9.20405,-71.80348 -1.39282,-14.87882 -2.36095,-33.06372 -0.76351,-52.14997 1.5748,-18.50626 5.18355,-36.97397 10.04527,-57.45863 0,-2e-5 1e-5,-3e-5 1e-5,-5e-5 6.80703,-28.79285 14.21365,-55.33063 22.95954,-87.40846 10.31428,-37.28235 27.12018,-72.78758 47.35395,-108.61977 18.26295,-32.48842 38.62261,-64.10745 56.27041,-96.16749 8.00591,-14.5698 15.39196,-29.05127 21.34451,-43.65835 0,0 2e-5,-5e-5 2e-5,-5e-5 5.49644,-13.57046 9.8524,-26.96526 12.05645,-40.10708 2.11389,-12.593009 2.52325,-25.001724 0.69392,-36.491335 -1.83491,-12.458818 -6.36128,-24.661199 -12.46919,-35.863504 -13.87265,-25.016388 -30.93941,-45.7559283 -50.66768,-59.804158 -18.64595,-13.617449 -39.86955,-21.691904 -59.88381,-25.252429 -11.29611,-2.073648 -22.54192,-2.739936 -33.25832,-2.524321 -11.41978,0.229767 -22.899,1.516126 -34.16871,3.613003 -24.39499,4.597604 -47.84659,13.416415 -69.36155,24.565656 -9.16291,4.61261 -17.63625,11.5037052 -25.07855,19.40775438 -8.16662,8.70566172 -14.96224,19.02918262 -20.54745,29.87627562 0,0 -1e-5,3e-5 -1e-5,3e-5 -13.04397,25.424749 -18.59608,53.440962 -18.96746,79.122228 -0.22769,32.20833 7.40028,59.77861 19.31209,81.10474 0,0 2e-5,2e-5 2e-5,2e-5 7.94193,14.43396 17.61962,26.00752 26.82241,34.96662 10.92823,10.6891 22.83248,19.02811 29.67393,24.17844 7.41616,5.58296 11.48712,9.26235 10.69496,11.9029 z"
       id="path821"
       inkscape:path-effect="#path-effect823"
       inkscape:original-d="M 265.71429,669.50504 C 255.09769,548.39733 254.32063,550.50879 301.22911,404.6986 348.13758,258.8884 502.73159,150.87084 440,26.647897 377.2684,-97.575045 250.9838,-101.77527 151.42858,-47.637818 51.873356,6.4996368 37.157377,215.5094 188.57143,260.93361"
       inkscape:connector-curvature="0"
       sodipodi:nodetypes="czzzc" />
    <circle
       style="fill:#000000;fill-rule:nonzero;stroke:none"
       id="path831"
       transform="matrix(0.82000001,0,0,0.82000001,56.285711,78.62519)"
       cx="257.14285"
       cy="778.07648"
       r="71.428574" />
    <circle
       style="fill:#ffffff;fill-rule:nonzero;stroke:#000000;stroke-width:18.29268265;stroke-miterlimit:4;stroke-dasharray:none"
       id="path835"
       transform="matrix(0.96183219,0,0,0.96183219,2.6720371,-803.1599)"
       cx="257.14285"
       cy="778.07648"
       r="71.428574" />
    <circle
       transform="matrix(0.96183219,0,0,0.96183219,-114.47082,-754.58847)"
       id="path833"
       style="fill:#ffffff;fill-rule:nonzero;stroke:#000000;stroke-width:18.29268265;stroke-miterlimit:4;stroke-dasharray:none"
       cx="257.14285"
       cy="778.07648"
       r="71.428574" />
    <circle
       transform="matrix(0.28000003,0,0,0.28000003,70.85714,-205.49924)"
       id="path837"
       style="fill:#000000;fill-rule:nonzero;stroke:none"
       cx="257.14285"
       cy="778.07648"
       r="71.428574" />
    <circle
       style="fill:#000000;fill-rule:nonzero;stroke:none"
       id="path839"
       transform="matrix(0.28000003,0,0,0.28000003,179.42857,-254.07067)"
       cx="257.14285"
       cy="778.07648"
       r="71.428574" />
    <path
       style="fill:#000000;fill-rule:evenodd;stroke:none"
       d="m 165.71429,152.36219 c 0.17875,-1.01746 7.11556,-0.47564 19.05936,0.25263 11.22036,0.68417 29.55284,1.71313 48.57559,-0.44331 8.79247,-0.99255 18.22479,-2.71002 27.54881,-5.73235 7.98054,-2.58544 15.99377,-6.15171 23.46148,-10.94055 1.10842,-0.70913 2.20568,-1.44573 3.29073,-2.20935 6.11881,-4.3062 11.57194,-9.27605 16.29824,-14.62144 6.55918,-7.40668 11.77393,-15.60347 15.92874,-23.646457 9.67803,-18.681039 14.5744,-38.34241 17.42581,-50.631387 3.01908,-13.0116 4.43189,-20.715365 5.5541,-20.599231 0.88475,0.09156 1.3826,7.988972 -0.12335,21.524796 -1.44207,12.961599 -5.05114,33.248039 -14.67633,53.738015 -4.13169,8.768444 -9.57138,17.776584 -16.68876,26.075784 -5.14327,5.98855 -11.15048,11.53986 -17.96341,16.33607 -1.20767,0.85018 -2.43067,1.66959 -3.66774,2.45775 -8.34323,5.30448 -17.19294,9.13686 -25.94934,11.77547 -10.21857,3.07737 -20.32891,4.61311 -29.64082,5.26408 -20.34483,1.41193 -38.57424,-0.99818 -50.0223,-3.16502 -11.93995,-2.25995 -18.56169,-4.57669 -18.41081,-5.4355 z"
       id="path841"
       inkscape:path-effect="#path-effect843"
       inkscape:original-d="m 165.71429,152.36219 c 99.8023,17.53351 164.70809,-8.41317 177.14286,-128.571436"
       inkscape:connector-curvature="0"
       sodipodi:nodetypes="cc" />
    <path
       style="fill:#000000;fill-rule:evenodd;stroke:none"
       d="m 320,12.362183 c -0.31186,-0.989101 1.47632,-2.8705061 5.47059,-4.2922439 3.90259,-1.3890993 10.1158,-2.2946599 17.14071,-0.2120826 0,9e-7 10e-6,8e-7 10e-6,8e-7 3.36991,1.0568582 6.66993,2.7020647 9.7653,4.9175987 2.66057,1.904332 4.9383,4.063808 6.84271,6.27807 4.24643,4.900074 6.86849,10.00767 8.28553,13.808083 0.76342,2.033538 1.22263,3.843365 1.41495,5.128485 0.10462,0.670068 0.12005,1.265058 0.0918,1.688502 0,0 0,1e-6 0,1e-6 0.0577,0.261064 -0.43128,1.239971 -0.44013,1.255018 -0.19988,0.339798 -1.0536,0.160887 -1.47761,-4.41e-4 0,0 -1e-5,0 -1e-5,0 -0.48061,-0.220808 -0.97056,-0.571197 -1.52988,-1.028906 -1.1029,-0.907145 -2.23976,-2.125027 -3.65552,-3.703779 -2.37313,-2.647556 -5.991,-7.011166 -9.68602,-10.527273 -1.74677,-1.645834 -3.65999,-3.299254 -5.69738,-4.782266 -2.38437,-1.735585 -4.73113,-3.087564 -7.10131,-4.072896 0,0 0,-1e-6 0,-1e-6 -4.65765,-2.066624 -9.61048,-2.554574 -13.10231,-2.865869 -3.5775,-0.318933 -5.97584,-0.494026 -6.3214,-1.590001 z"
       id="path845"
       inkscape:path-effect="#path-effect847"
       inkscape:original-d="m 320,12.362183 c 32.49793,-10.2464564 46.56722,27.392481 48.57143,28.571428"
       inkscape:connector-curvature="0" />
    <path
       style="fill:#000000;fill-rule:evenodd;stroke:none"
       d="m 22.857143,-84.780675 c -1.183426,-0.692349 2.677396,-15.011332 17.010148,-30.817935 4.531551,-4.98651 10.120913,-9.86673 16.776529,-13.96256 1.619891,-0.99687 3.260037,-1.92072 4.915792,-2.77157 8.198448,-4.1792 16.549072,-6.54234 23.546161,-7.96604 15.488357,-3.16638 26.014637,-3.01149 26.322797,-1.62476 0.46843,2.10793 -9.58015,5.05636 -24.161095,9.82658 -6.40489,2.10494 -14.05804,4.80051 -21.096106,8.58566 -1.436176,0.76558 -2.866626,1.5859 -4.290448,2.46179 -5.838452,3.59159 -10.967563,7.7491 -15.382132,11.9257 -6.698603,6.32703 -12.5412,13.428372 -16.220159,17.692178 -3.942808,4.569598 -6.48723,7.197533 -7.421487,6.650957 z"
       id="path849"
       inkscape:path-effect="#path-effect851"
       inkscape:original-d="M 22.857143,-84.780675 C 50.290472,-131.67222 75.255598,-133.8851 111.42857,-141.92354"
       inkscape:connector-curvature="0" />
    <path
       style="fill:#000000;fill-rule:evenodd;stroke:none"
       d="m 160,-136.20925 c -0.90515,-0.24468 -1.16458,-3.40191 -0.21966,-8.66672 0.90409,-5.03735 3.12638,-12.89834 8.13708,-20.64007 4.00622,-6.10966 10.11446,-11.91333 18.22747,-15.49729 0.27026,-0.11623 0.54155,-0.23006 0.81384,-0.34152 8.14279,-3.33316 16.48,-4.24805 23.33435,-4.43452 17.80565,-0.56522 29.70694,2.36746 29.70694,3.86584 0,2.4794 -12.12362,2.98742 -29.00764,5.1277 -6.36336,0.83851 -13.80624,1.95831 -20.20022,4.66547 -0.21697,0.0919 -0.4325,0.18539 -0.64661,0.28062 -6.19577,2.66322 -11.24292,7.01406 -14.91277,11.58999 -4.72021,5.82641 -8.18431,12.94468 -10.33044,17.10103 -2.34605,4.54355 -3.90567,7.21889 -4.90234,6.94947 z"
       id="path853"
       inkscape:path-effect="#path-effect855"
       inkscape:original-d="m 160,-136.20925 c 12.51785,-46.30705 35.8694,-45.71428 80.00001,-45.71428"
       inkscape:connector-curvature="0"
       sodipodi:nodetypes="cc" />
  </g>
</svg>
