<?xml version="1.0" encoding="UTF-8"?> <!-- Generator: Adobe Illustrator 25.0.0, SVG Export Plug-In . SVG Version: 6.00 Build 0) --> <svg xmlns="http://www.w3.org/2000/svg" xmlns:xlink="http://www.w3.org/1999/xlink" version="1.1" id="Layer_1" x="0px" y="0px" viewBox="0 0 400 245" style="enable-background:new 0 0 400 245;" xml:space="preserve"> <style type="text/css"> .st0{fill:#4A97D2;} .st1{fill:#333333;} </style> <g id="g12" transform="scale(0.1)"> <path id="path14" class="st0" d="M3993.6,1063.8c0,42.2-34.1,76.4-76.4,76.4c-42.2,0-76.3-34.2-76.3-76.4 c0-42.2,34.1-76.4,76.3-76.4C3959.5,987.4,3993.6,1021.6,3993.6,1063.8L3993.6,1063.8"></path> <path id="path16" class="st1" d="M741.8,732.1l-111.3-63l-224.1,454.1l-239-454.1l-112.7,63l284.1,533.8c-2.1,5.1-8.6,19-19.5,42.2 c-11.1,22.1-22.5,44.1-34.6,66.2c-21.1,38.1-42.6,69.1-64.6,93.2c-22.1,25.1-44.6,45.1-67.8,60.2c-23,15.1-47,26.5-72.1,34.6 c-24.1,8-48.7,14.5-73.8,19.5l51.2,106.8c16-2.1,37.5-7.1,64.6-15.1c28.1-7,58.6-20.6,91.7-40.6c33-20,66.7-48.6,100.7-85.7 c35.2-37.1,67.8-86.2,97.8-147.3L741.8,732.1"></path> <path id="path18" class="st1" d="M1350.1,1064.5c0,35.1-6,67.6-18.1,97.8c-12.1,30-28.6,56.2-49.5,78.1 c-20.1,21.1-44.1,38.1-72.2,51.2c-27.1,11.9-56.7,18-88.7,18c-32.1,0-62.2-6-90.2-18c-28.1-13.1-52.7-30.1-73.8-51.2 c-20-21.9-36-48.1-48.1-78.1c-12.1-30.1-18.1-62.7-18.1-97.8c0-35.1,6-67.6,18.1-97.7c12.1-30,28.1-56.1,48.1-78.2 c21.1-22.1,45.7-39.2,73.8-51.1c28-13.2,58.1-19.7,90.2-19.7c32.1,0,61.6,6.5,88.7,19.7c28.1,11.9,52.1,29,72.2,51.1 c21,22.1,37.5,48.1,49.5,78.2C1344,996.9,1350.1,1029.4,1350.1,1064.5 M1489.9,1064.5c0-52.1-9.5-100.8-28.6-145.9 c-18.1-45.1-43.6-84.2-76.7-117.3c-33.2-33-72.2-58.6-117.3-76.7c-45.1-19-93.8-28.6-145.9-28.6c-52.1,0-100.8,9.5-145.9,28.6 c-45.1,18.1-84.3,43.6-117.3,76.7c-33,33.1-59.2,72.2-78.2,117.3c-19,45.1-28.6,93.8-28.6,145.9c0,52.1,9.5,100.8,28.6,145.9 c19,44.1,45.2,82.7,78.2,115.7c33,33.2,72.2,59.2,117.3,78.2c45.1,18.1,93.8,27.1,145.9,27.1c52.1,0,100.8-9,145.9-27.1 c45.1-19.1,84.1-45.1,117.3-78.2c33-33,58.6-71.6,76.7-115.7C1480.4,1165.3,1489.9,1116.6,1489.9,1064.5"></path> <path id="path20" class="st1" d="M3328.4,1064.5c0,35.1-6,67.6-18.1,97.8c-12.1,30-28.6,56.2-49.7,78.1c-20,21.1-44,38.1-72.1,51.2 c-27.1,11.9-56.7,18-88.7,18c-32.1,0-62.2-6-90.3-18c-28-13.1-52.6-30.1-73.7-51.2c-20-21.9-36.1-48.1-48.1-78.1 c-12.1-30.1-18.1-62.7-18.1-97.8c0-35.1,6-67.6,18.1-97.7c12.1-30,28.1-56.1,48.1-78.2c21.1-22.1,45.7-39.2,73.7-51.1 c28.1-13.2,58.2-19.7,90.3-19.7c32.1,0,61.6,6.5,88.7,19.7c28.1,11.9,52.1,29,72.1,51.1c21.1,22.1,37.6,48.1,49.7,78.2 C3322.4,996.9,3328.4,1029.4,3328.4,1064.5 M3468.2,1064.5c0-52.1-9.5-100.8-28.6-145.9c-18.1-45.1-43.6-84.2-76.7-117.3 c-33.2-33-72.2-58.6-117.3-76.7c-45.1-19-93.8-28.6-145.9-28.6c-52.2,0-100.8,9.5-145.9,28.6c-45.1,18.1-84.3,43.6-117.3,76.7 c-33,33.1-59.2,72.2-78.2,117.3c-19,45.1-28.6,93.8-28.6,145.9c0,52.1,9.5,100.8,28.6,145.9c19,44.1,45.2,82.7,78.2,115.7 c33,33.2,72.2,59.2,117.3,78.2c45.1,18.1,93.7,27.1,145.9,27.1c52.1,0,100.8-9,145.9-27.1c45.1-19.1,84.1-45.1,117.3-78.2 c33-33,58.6-71.6,76.7-115.7C3458.7,1165.3,3468.2,1116.6,3468.2,1064.5"></path> <path id="path22" class="st1" d="M2476.7,468.6l-133.9,75.2v164.5h-362.1c-261.5,0-419,127.4-419,359.5 c0,360.4,375.5,428.4,642.5,299.6l-56.3-109.2c-211.3,92.3-445.3,53-445.3-192.8c0-158.6,82.6-245.4,274.9-245.4h365.4v438.2 c0,193.7,221.9,198.1,359.5,118.6l-52.9-104.5c-88.5,44.8-172.6,50.6-172.6-35.3v-417h183.2V708.3h-183.2L2476.7,468.6 L2476.7,468.6"></path> <path id="path24" class="st1" d="M964.1,1765.7h33.5c16.9-0.1,33.4,11.9,33.4,29c0,28.7-32.3,33-32.3,33l-34.6,0.2V1765.7z M915.7,1724.7v253h48.3l0.6-106.7c86.2,5.4,118.4-24.6,118.4-77.5c0-47.5-42.6-68.8-83.4-68.8H915.7L915.7,1724.7"></path> <path id="path26" class="st1" d="M1840,1851.4c0,12.3-2.3,23.9-6.9,34.6c-4.2,10.4-10.2,19.5-18.1,27.4c-7.8,7.8-17,14-27.5,18.6 c-10.4,4.2-21.7,6.4-33.8,6.4c-12.2,0-23.5-2.2-33.9-6.4c-10.5-4.6-19.6-10.7-27.5-18.6c-7.6-7.8-13.6-17-18.1-27.4 c-4.6-10.7-6.9-22.3-6.9-34.6c0-12.3,2.3-23.7,6.9-34.2c4.5-10.6,10.5-19.9,18.1-27.7c7.8-7.8,17-13.9,27.5-18.2 c10.4-4.5,21.7-6.7,33.9-6.7c12.1,0,23.4,2.3,33.8,6.7c10.5,4.3,19.6,10.4,27.5,18.2c7.8,7.8,13.9,17.1,18.1,27.7 C1837.7,1827.7,1840,1839.1,1840,1851.4 M1889,1851.4c0-18.1-3.5-35-10.6-50.6c-6.9-15.9-16.5-29.7-28.9-41.2 c-12.1-11.7-26.4-20.9-43-27.5c-16.4-6.9-34.1-10.4-53-10.4c-19,0-36.9,3.5-53.5,10.4c-16.4,6.6-30.6,15.8-42.7,27.5 c-12.2,11.6-21.7,25.3-28.9,41.2c-6.9,15.7-10.3,32.5-10.3,50.6c0,18.3,3.4,35.3,10.3,51c7.2,15.7,16.8,29.4,28.9,41.2 c12.1,11.7,26.3,20.9,42.7,27.5c16.6,6.6,34.5,10,53.5,10c18.9,0,36.7-3.4,53-10c16.6-6.6,31-15.8,43-27.5 c12.4-11.8,22.1-25.5,28.9-41.2C1885.5,1886.8,1889,1869.8,1889,1851.4"></path> <path id="path28" class="st1" d="M2086.4,1725.2V1917c0,7.7-5.7,16.3-15.1,16.5l-15.1,0.6l0.8,47l14.1,0.2 c47.3,0.7,63.6-43.7,63.6-64.5v-191.3"></path> <path id="path30" class="st1" d="M2498.2,1724.6h-161.3v252.2h162l-0.7-40.6h-112.8v-65.8h94.4v-40.6h-94.4V1766h112.1 L2498.2,1724.6"></path> <path id="path32" class="st1" d="M2870.1,1785.1c-82.6-45.3-163.9-17.8-163.9,65.2c0,66.9,64.3,118.4,170,63.1l15.3,41.3 c-101.5,55.8-235.1,16-235.1-104.4c0-109.1,118.5-165.9,233.6-106.1L2870.1,1785.1"></path> <path id="path34" class="st1" d="M3256.9,1724.6l0.1,41.3h-80.5v211.6H3128V1766h-77.3l1.1-41.3H3256.9"></path> <path id="path36" class="st1" d="M1322.9,1765.7h33.5c16.9-0.1,33.4,11.9,33.4,29c0,28.7-32.3,33-32.3,33l-34.6,0.2V1765.7z M1274.7,1724.7v253h48.2v-108.9h32l55.9,108.9h55l-66.7-122c26.4-11.8,40.1-32.6,40.1-62.2c0-49.4-43.3-68.8-90.9-68.8H1274.7 L1274.7,1724.7"></path> </g> </svg> 