<?xml version="1.0" encoding="UTF-8" standalone="no"?>
<svg
   xmlns:dc="http://purl.org/dc/elements/1.1/"
   xmlns:cc="http://creativecommons.org/ns#"
   xmlns:rdf="http://www.w3.org/1999/02/22-rdf-syntax-ns#"
   xmlns:svg="http://www.w3.org/2000/svg"
   xmlns="http://www.w3.org/2000/svg"
   xmlns:xlink="http://www.w3.org/1999/xlink"
   id="svg26"
   version="1.1"
   viewBox="0 0 65.987518 101.131"
   height="101.131"
   width="65.987518">
  <metadata
     id="metadata30">
    <rdf:RDF>
      <cc:Work
         rdf:about="">
        <dc:format>image/svg+xml</dc:format>
        <dc:type
           rdf:resource="http://purl.org/dc/dcmitype/StillImage" />
        <dc:title></dc:title>
      </cc:Work>
    </rdf:RDF>
  </metadata>
  <defs
     id="defs5">
    <polygon
       points="0.43895214,101.94 0.43895214,0.869 66.42647,0.869 66.42647,101.94 "
       id="path-1" />
  </defs>
  <g
     transform="translate(-0.43895214,-0.869)"
     style="fill:none;fill-rule:evenodd;stroke:none;stroke-width:1"
     id="Page-1">
    <g
       id="LumiraDx_Logos_Blue_TM">
      <g
         id="Group-18">
        <mask
           fill="white"
           id="mask-2">
          <use
             height="100%"
             width="100%"
             y="0"
             x="0"
             id="use7"
             xlink:href="#path-1" />
        </mask>
        <g
           id="Clip-16" />
        <path
           style="fill:#008ec2"
           mask="url(#mask-2)"
           id="Fill-15"
           d="m 26.969,0.869 c 9.386,15.197 0.197,25.037 0.197,25.037 -2.637,3.18 -4.865,5.803 -6.858,7.738 -7.012,6.836 -8.543,8.763 -8.514,8.822 l -4.33,5.246 -1.326,1.62 -0.997,1.421 -0.938,1.334 -0.93,1.487 -0.734,1.341 -0.592,1.011 -0.536,1.348 -0.403,1.143 -0.395,1.414 -0.132,1.282 C -0.45,73.562 14.388,86.078 14.388,86.078 l 13.585,10.573 c -3.4,-5.789 -4.536,-8.954 -4.536,-8.954 -3.195,-8.14 -1.729,-13.798 -1.729,-13.798 2.616,-8.66 6.719,-12.111 6.719,-12.111 l 4.462,-4.587 3.729,-3.43 3.796,-3.765 2.462,-2.558 2.191,-2.761 C 49.727,38.678 47.866,30.083 47.866,30.083 46.283,21.766 41.543,15.055 41.543,15.055 33.908,3.851 26.969,0.869 26.969,0.869" />
        <path
           style="fill:#008ec2"
           mask="url(#mask-2)"
           id="Fill-17"
           d="m 29.877,102 c 0.411,-5.613 9.211,-11.152 9.211,-11.152 l 6.074,-3.598 5.547,-3.1 2.374,-1.347 C 67.034,74.721 66.404,66.11 66.404,66.11 66.771,60.052 62.521,53.574 62.521,53.574 56.966,43.733 55.523,37.146 55.523,37.146 c -2.22,8.756 -7.108,13.021 -7.108,13.021 -4.293,4.608 -8.946,8.199 -8.946,8.199 -10.845,8.499 -9.145,17.739 -9.145,17.739 2.924,-5.122 8.588,-8.316 8.588,-8.316 4.506,-2.755 5.987,-3.583 5.987,-3.583 8.331,-4.683 10.514,-9.511 10.514,-9.511 -0.037,8.947 -6.887,14.332 -6.887,14.332 l -2.514,2.176 -1.699,1.422 -2.704,2.059 -1.297,0.938 C 33.776,80.12 30.984,84.897 30.984,84.897 26.265,92.387 29.877,102 29.877,102" />
      </g>
    </g>
  </g>
</svg>
