<?xml version="1.0" encoding="UTF-8" standalone="no"?>
<svg
   xmlns:dc="http://purl.org/dc/elements/1.1/"
   xmlns:cc="http://creativecommons.org/ns#"
   xmlns:rdf="http://www.w3.org/1999/02/22-rdf-syntax-ns#"
   xmlns:svg="http://www.w3.org/2000/svg"
   xmlns="http://www.w3.org/2000/svg"
   id="svg192"
   version="1.2"
   viewBox="0 0 120.77347 117.79564"
   height="117.79565pt"
   width="120.77348pt">
  <metadata
     id="metadata196">
    <rdf:RDF>
      <cc:Work
         rdf:about="">
        <dc:format>image/svg+xml</dc:format>
        <dc:type
           rdf:resource="http://purl.org/dc/dcmitype/StillImage" />
        <dc:title></dc:title>
      </cc:Work>
    </rdf:RDF>
  </metadata>
  <defs
     id="defs5">
    <clipPath
       id="clip1">
      <path
         id="path2"
         d="M 0,276 H 530.97266 V 551.98437 H 0 Z m 0,0" />
    </clipPath>
  </defs>
  <path
     style="fill:#191714;fill-opacity:1;fill-rule:evenodd;stroke:none"
     d="M 60.38671,0 C 27.03906,0 0,27.035156 0,60.390622 c 0,26.67969 17.30078,49.316408 41.29687,57.300778 3.01563,0.5586 4.125,-1.3125 4.125,-2.90625 0,-1.4375 -0.0586,-6.19531 -0.082,-11.24218 -16.80078,3.65234 -20.34375,-7.124998 -20.34375,-7.124998 -2.75,-6.98047 -6.70703,-8.83594 -6.70703,-8.83594 -5.48047,-3.75 0.41406,-3.67188 0.41406,-3.67188 6.0625,0.42578 9.25781,6.22266 9.25781,6.22266 5.38282,9.23437 14.125,6.5625 17.57032,5.01953 0.54296,-3.90234 2.10937,-6.56641 3.83593,-8.07422 -13.41406,-1.52734 -27.51562,-6.70312 -27.51562,-29.84375 0,-6.58984 2.35937,-11.98047 6.22265,-16.207029 -0.625,-1.523437 -2.6914,-7.664062 0.58594,-15.984375 0,0 5.07031,-1.621094 16.60938,6.191406 4.82031,-1.335937 9.98437,-2.007812 15.11718,-2.03125 5.13282,0.02344 10.30079,0.695313 15.12891,2.03125 11.52344,-7.8125 16.58984,-6.191406 16.58984,-6.191406 3.28516,8.320313 1.21875,14.460938 0.58985,15.984375 3.875,4.226559 6.21484,9.617189 6.21484,16.207029 0,23.19531 -14.125,28.30078 -27.57422,29.79688 2.16797,1.875 4.09766,5.54687 4.09766,11.18359 0,8.078128 -0.0703,14.582028 -0.0703,16.570308 0,1.60938 1.08593,3.49219 4.14843,2.89844 23.98047,-7.99219 41.26172,-30.621088 41.26172,-57.292968 C 120.77347,27.035156 93.73832,0 60.38675,0"
     id="path13" />
  <path
     style="fill:#191714;fill-opacity:1;fill-rule:nonzero;stroke:none"
     d="m 22.87109,86.703122 c -0.13281,0.30078 -0.60547,0.39453 -1.03516,0.1875 -0.4375,-0.19922 -0.68359,-0.60937 -0.54297,-0.91015 0.12891,-0.3086 0.60157,-0.39454 1.03907,-0.1875 0.4414,0.19921 0.6914,0.60937 0.53906,0.91015"
     id="path15" />
  <path
     style="fill:#191714;fill-opacity:1;fill-rule:nonzero;stroke:none"
     d="m 25.3164,89.433592 c -0.28906,0.26563 -0.85156,0.14453 -1.23437,-0.27734 -0.39453,-0.42188 -0.46875,-0.98828 -0.17578,-1.25782 0.29687,-0.26562 0.84375,-0.14062 1.23828,0.28125 0.39453,0.42579 0.47265,0.98438 0.17187,1.25391"
     id="path17" />
  <path
     style="fill:#191714;fill-opacity:1;fill-rule:nonzero;stroke:none"
     d="m 27.69921,92.910152 c -0.37109,0.25782 -0.97656,0.0195 -1.35156,-0.51953 -0.37109,-0.53906 -0.37109,-1.18359 0.008,-1.4414 0.375,-0.25782 0.97266,-0.0234 1.35157,0.50781 0.36718,0.54687 0.36718,1.1914 -0.008,1.45312"
     id="path19" />
  <path
     style="fill:#191714;fill-opacity:1;fill-rule:nonzero;stroke:none"
     d="m 30.96093,96.269532 c -0.33203,0.36719 -1.03906,0.26953 -1.55468,-0.23047 -0.52735,-0.48438 -0.67188,-1.17578 -0.34375,-1.54297 0.33593,-0.36328 1.04687,-0.26172 1.5664,0.23047 0.52344,0.48828 0.6836,1.18359 0.33203,1.54297"
     id="path21" />
  <path
     style="fill:#191714;fill-opacity:1;fill-rule:nonzero;stroke:none"
     d="m 35.46093,98.222652 c -0.14843,0.47266 -0.82812,0.6875 -1.51172,0.48438 -0.68359,-0.20703 -1.1289,-0.75781 -0.99218,-1.23828 0.14453,-0.47266 0.82422,-0.69922 1.51562,-0.48438 0.67969,0.20703 1.12891,0.75781 0.98828,1.23828"
     id="path23" />
  <path
     style="fill:#191714;fill-opacity:1;fill-rule:nonzero;stroke:none"
     d="m 40.40234,98.582032 c 0.0156,0.5 -0.5625,0.91406 -1.28125,0.92187 -0.72266,0.0156 -1.30859,-0.38672 -1.31641,-0.8789 0,-0.5 0.57032,-0.91016 1.28907,-0.92188 0.71875,-0.0156 1.30859,0.38672 1.30859,0.87891"
     id="path25" />
  <path
     style="fill:#191714;fill-opacity:1;fill-rule:nonzero;stroke:none"
     d="m 45,97.800782 c 0.0859,0.48437 -0.41407,0.98437 -1.125,1.11719 -0.70313,0.1289 -1.35157,-0.17188 -1.44141,-0.65235 -0.0859,-0.5 0.42187,-0.99609 1.12109,-1.125 0.71485,-0.125 1.35547,0.16797 1.44532,0.66016"
     id="path27" />
</svg>
